<svg id="svg" version="1.1" width="400" height="375.1111111111111" viewBox="0 0 400 375.1111111111111" xmlns="http://www.w3.org/2000/svg" xmlns:xlink="http://www.w3.org/1999/xlink" ><g id="svgg"><path id="path0" d="M112.195 119.430 C 111.679 119.688,110.936 120.606,110.544 121.471 C 109.670 123.397,108.621 123.827,104.803 123.827 C 99.642 123.827,99.319 124.261,98.318 132.530 C 94.487 164.175,94.235 162.174,102.232 163.616 C 112.960 165.550,116.995 173.861,113.703 187.242 C 109.336 204.987,103.961 216.634,95.530 226.617 C 90.422 232.667,89.410 234.503,81.041 252.908 C 74.060 268.260,73.383 270.225,73.411 275.047 C 73.451 282.199,77.925 286.125,86.554 286.582 C 91.400 286.838,91.684 287.012,89.862 288.612 C 86.899 291.213,86.346 294.706,88.597 296.600 L 89.739 297.561 104.813 297.529 C 138.550 297.457,140.809 297.259,142.869 294.202 C 144.442 291.868,143.901 290.016,141.088 288.106 L 140.150 287.469 141.651 287.446 C 147.897 287.349,150.726 282.930,151.753 271.670 C 152.541 263.031,153.748 260.417,158.686 256.663 C 162.290 253.923,162.744 252.982,162.128 249.536 C 161.099 243.775,162.579 239.621,167.197 235.314 C 171.173 231.606,171.130 231.689,171.532 227.001 C 172.114 220.235,174.314 214.664,178.490 209.383 C 181.636 205.404,181.367 205.489,186.689 206.794 C 197.614 209.473,207.216 210.383,220.528 210.000 C 230.136 209.724,246.982 208.409,248.499 207.817 C 249.760 207.324,249.746 207.932,248.777 195.497 C 247.596 180.347,247.684 179.617,251.053 176.574 C 254.595 173.374,260.190 172.616,267.479 174.348 L 268.480 174.586 267.355 173.370 L 266.229 172.154 296.998 172.287 C 332.890 172.442,332.569 172.472,336.389 168.651 C 339.165 165.876,339.358 165.111,339.603 155.910 L 339.823 147.655 341.043 144.896 C 345.112 135.700,340.109 124.283,330.713 121.321 L 328.681 120.681 326.536 121.779 L 324.390 122.878 306.004 123.220 C 264.802 123.988,116.910 123.729,116.782 122.889 C 116.498 121.010,116.259 120.420,115.497 119.710 C 114.564 118.841,113.545 118.754,112.195 119.430 M169.862 169.044 C 171.160 170.901,173.577 174.395,175.233 176.810 C 176.889 179.224,178.415 181.304,178.624 181.434 C 179.261 181.827,181.238 186.036,181.238 186.998 C 181.238 188.653,178.615 189.276,176.923 188.023 C 176.717 187.870,174.944 187.188,172.983 186.507 C 171.023 185.827,168.861 184.935,168.181 184.526 C 166.996 183.813,166.912 183.810,166.211 184.444 C 165.135 185.418,165.267 185.773,167.573 188.097 C 171.118 191.670,169.667 192.923,165.282 190.074 L 162.664 188.374 160.298 190.823 C 157.655 193.559,157.557 194.194,159.588 195.455 C 161.520 196.655,163.733 199.119,163.477 199.786 C 163.170 200.584,162.395 200.527,160.908 199.594 C 160.223 199.165,158.671 198.236,157.459 197.530 L 155.255 196.247 153.706 197.994 C 152.092 199.815,150.851 201.520,150.847 201.924 C 150.845 202.054,151.802 202.898,152.972 203.801 C 159.778 209.047,159.696 212.234,152.879 207.410 C 151.030 206.101,149.297 204.893,149.027 204.727 C 148.436 204.362,147.091 205.536,145.549 207.763 L 144.461 209.335 147.534 212.266 C 152.547 217.047,153.116 217.722,152.635 218.301 C 151.829 219.272,148.758 217.502,143.715 213.159 C 142.992 212.537,142.299 212.023,142.173 212.018 C 141.975 212.009,139.240 215.838,138.900 216.601 C 138.832 216.753,140.988 219.033,143.690 221.666 C 152.811 230.554,148.951 230.433,138.656 221.508 C 136.276 219.446,136.239 219.451,134.386 222.151 C 132.503 224.895,132.500 224.681,134.439 226.161 C 135.310 226.826,137.036 228.314,138.274 229.469 C 139.512 230.623,141.116 232.110,141.839 232.772 C 144.453 235.169,145.706 237.523,144.367 237.523 C 143.707 237.523,137.548 232.945,135.823 231.172 C 134.995 230.321,132.404 228.336,131.484 227.846 C 130.200 227.163,126.819 232.184,128.000 233.021 C 129.389 234.005,140.582 245.208,141.049 246.081 C 142.420 248.642,139.655 247.696,136.368 244.479 C 135.938 244.059,134.267 242.617,132.654 241.276 C 131.041 239.934,129.535 238.668,129.307 238.462 C 128.070 237.343,125.275 235.207,125.201 235.324 C 125.154 235.399,124.210 236.966,123.104 238.808 L 121.092 242.156 121.976 242.873 C 122.463 243.267,123.627 244.022,124.564 244.552 C 126.245 245.502,131.657 249.054,132.923 250.039 C 137.601 253.675,133.427 261.972,123.452 268.864 C 103.575 282.599,100.476 283.824,98.182 278.861 C 97.193 276.720,96.948 253.305,97.852 247.280 C 98.115 245.525,98.418 243.499,98.524 242.777 C 100.202 231.344,102.735 230.226,112.296 236.699 C 114.915 238.472,117.700 240.150,118.023 240.150 C 118.108 240.150,118.950 238.841,119.892 237.242 C 120.835 235.643,121.810 234.037,122.060 233.673 C 122.445 233.113,122.343 232.868,121.388 232.067 C 120.032 230.928,110.171 224.374,108.744 223.663 C 107.604 223.095,107.114 222.192,107.652 221.654 C 108.119 221.186,110.158 221.609,111.820 222.518 C 112.542 222.913,113.674 223.494,114.334 223.810 C 114.995 224.126,117.323 225.576,119.508 227.031 C 124.731 230.511,124.245 230.463,126.262 227.704 L 127.999 225.328 126.429 224.015 C 125.566 223.293,122.559 221.081,119.747 219.099 C 112.856 214.244,112.658 212.125,119.458 216.001 C 121.139 216.959,123.021 218.001,123.640 218.317 C 124.259 218.632,125.840 219.621,127.154 220.515 C 128.468 221.408,129.679 222.139,129.845 222.139 C 130.221 222.139,133.208 217.965,133.208 217.441 C 133.208 217.075,127.339 212.364,124.578 210.514 C 122.468 209.099,121.616 208.212,121.831 207.652 C 122.330 206.351,124.377 207.249,130.931 211.646 C 136.247 215.212,135.437 215.138,137.504 212.241 C 139.163 209.917,139.553 209.006,138.890 209.006 C 138.456 209.006,130.507 203.031,129.967 202.299 C 128.878 200.825,130.804 200.208,132.458 201.501 C 132.974 201.905,133.584 202.238,133.815 202.243 C 134.045 202.248,135.882 203.361,137.897 204.718 C 139.911 206.074,141.673 207.045,141.813 206.875 C 141.952 206.705,142.811 205.576,143.721 204.365 L 145.376 202.163 144.418 201.363 C 142.669 199.903,141.295 198.859,139.517 197.641 C 137.397 196.187,136.656 194.891,137.477 194.069 C 137.969 193.578,138.274 193.672,140.093 194.880 C 141.226 195.632,142.294 196.248,142.465 196.249 C 142.636 196.250,143.790 196.924,145.028 197.749 C 147.791 199.587,147.925 199.590,149.229 197.842 C 149.807 197.068,150.744 195.988,151.312 195.440 C 152.705 194.099,152.633 193.802,150.568 192.394 C 148.222 190.794,146.717 189.205,146.717 188.328 C 146.717 187.208,148.313 187.449,150.159 188.847 C 151.052 189.523,152.399 190.436,153.154 190.877 L 154.525 191.677 157.000 189.074 C 159.826 186.100,159.936 185.715,158.255 184.667 C 156.606 183.640,155.908 182.482,156.504 181.763 C 157.064 181.089,158.021 181.363,160.113 182.796 L 161.688 183.875 163.021 182.705 L 164.353 181.536 164.353 177.728 C 164.354 171.740,165.701 165.322,166.909 165.554 C 167.235 165.617,168.564 167.188,169.862 169.044 M235.152 173.794 C 242.450 178.192,243.156 194.622,236.281 200.057 C 232.677 202.905,231.298 203.121,215.629 203.291 L 201.802 203.441 202.109 202.190 C 202.585 200.249,202.355 198.364,201.335 195.854 C 198.766 189.532,199.100 183.304,202.289 178.041 C 203.618 175.849,204.128 175.499,204.128 176.777 C 204.128 177.466,204.288 177.541,205.347 177.352 C 207.105 177.038,214.357 176.121,223.610 175.043 C 232.287 174.032,232.243 174.043,231.502 173.149 C 230.805 172.310,233.471 172.780,235.152 173.794 M194.830 199.538 C 195.371 200.189,194.985 200.104,191.420 198.783 C 188.076 197.545,187.067 195.553,188.610 193.235 C 190.090 191.014,190.230 191.086,192.369 195.171 C 193.462 197.259,194.570 199.224,194.830 199.538 M101.135 251.013 C 100.034 253.143,101.017 256.118,103.496 258.162 C 107.687 261.616,109.922 256.093,106.054 251.841 C 104.125 249.720,101.990 249.361,101.135 251.013 " stroke="none" fill="#040404" fill-rule="evenodd"></path><path id="path1" d="M0.000 187.617 L 0.000 375.235 200.000 375.235 L 400.000 375.235 400.000 187.617 L 400.000 0.000 200.000 0.000 L 0.000 0.000 0.000 187.617 M207.988 21.020 C 309.276 27.019,381.181 117.708,364.325 218.199 C 354.163 278.786,308.891 330.726,250.094 349.255 C 144.074 382.667,36.486 308.002,30.752 197.036 C 25.618 97.668,108.718 15.141,207.988 21.020 M166.426 166.213 C 165.790 167.242,165.010 172.932,164.953 176.952 L 164.889 181.484 163.551 182.862 C 161.967 184.494,161.861 184.509,160.252 183.322 C 158.970 182.376,156.972 181.740,156.563 182.148 C 156.318 182.394,159.426 185.366,159.929 185.366 C 160.723 185.366,159.967 186.563,157.496 189.214 C 154.272 192.673,154.959 192.582,151.186 190.056 C 145.590 186.310,145.361 188.217,150.938 192.124 C 153.088 193.631,153.135 194.118,151.313 196.075 C 150.539 196.906,149.467 198.165,148.930 198.873 L 147.954 200.161 145.527 198.580 C 144.192 197.710,142.978 196.998,142.830 196.998 C 142.681 196.998,141.682 196.407,140.609 195.685 C 138.779 194.452,137.336 194.002,137.336 194.663 C 137.336 195.289,139.578 197.287,142.695 199.437 C 146.441 202.022,146.394 201.906,144.548 204.096 C 143.780 205.007,142.788 206.187,142.343 206.719 L 141.534 207.686 138.966 205.976 C 128.016 198.685,127.074 200.216,137.805 207.863 C 138.785 208.561,139.587 209.369,139.587 209.659 C 139.587 210.166,136.448 214.818,135.861 215.181 C 135.703 215.278,133.395 213.876,130.733 212.065 C 121.979 206.110,118.609 205.812,126.923 211.728 C 129.451 213.527,132.085 215.491,132.775 216.093 L 134.031 217.188 132.107 220.039 C 129.826 223.419,130.474 223.291,127.168 221.013 C 125.670 219.981,124.294 219.137,124.110 219.137 C 123.926 219.137,123.069 218.658,122.206 218.072 C 119.938 216.532,115.238 214.264,115.026 214.607 C 114.729 215.087,116.943 216.809,123.707 221.355 C 124.908 222.163,126.482 223.327,127.205 223.942 L 128.518 225.059 126.693 227.731 C 125.689 229.200,124.721 230.493,124.543 230.603 C 124.365 230.713,122.400 229.555,120.177 228.029 C 117.954 226.503,115.544 224.954,114.822 224.586 C 109.192 221.719,108.068 221.332,108.068 222.258 C 108.068 222.574,108.954 223.324,110.038 223.925 C 111.121 224.525,112.590 225.340,113.301 225.735 C 114.013 226.131,116.505 227.847,118.839 229.550 L 123.083 232.646 121.886 234.803 C 118.353 241.166,118.311 241.185,113.968 238.360 C 102.879 231.146,101.185 231.369,99.468 240.266 C 98.159 247.048,97.873 250.792,97.757 262.664 C 97.528 286.112,97.882 286.182,124.015 267.856 C 131.993 262.261,135.531 256.379,133.630 251.872 C 133.114 250.648,130.359 248.475,126.577 246.307 C 120.347 242.736,120.272 242.629,122.015 239.706 C 125.299 234.202,125.133 234.327,126.986 235.929 C 128.541 237.273,131.698 239.930,134.107 241.922 C 135.160 242.794,136.529 243.993,137.148 244.588 C 139.041 246.406,140.713 247.427,140.713 246.765 C 140.713 245.972,134.440 239.377,128.495 233.919 L 126.772 232.337 128.489 229.977 C 129.434 228.679,130.206 227.482,130.206 227.317 C 130.206 226.289,132.598 227.849,138.086 232.458 C 141.623 235.428,143.837 237.128,144.184 237.139 C 145.482 237.181,141.154 232.284,136.608 228.567 C 135.691 227.818,134.527 226.825,134.020 226.360 C 133.513 225.896,132.954 225.516,132.778 225.516 C 132.176 225.516,132.500 224.204,133.427 222.889 C 133.936 222.167,134.703 221.027,135.131 220.356 C 135.559 219.686,136.064 219.137,136.252 219.137 C 136.652 219.137,140.635 222.285,141.463 223.256 C 142.400 224.353,147.539 227.767,147.909 227.538 C 148.100 227.421,147.785 226.707,147.210 225.951 C 146.254 224.695,145.225 223.674,139.833 218.631 C 138.609 217.486,138.113 216.770,138.315 216.439 C 139.140 215.093,141.929 211.632,142.189 211.632 C 142.352 211.632,144.049 212.887,145.960 214.422 C 151.730 219.054,154.752 219.737,150.079 215.353 C 143.028 208.737,143.572 209.790,145.713 206.889 C 148.510 203.102,147.999 203.080,153.545 207.223 C 156.287 209.272,157.598 209.847,157.598 208.999 C 157.598 208.485,154.491 205.508,152.064 203.697 C 149.830 202.031,149.741 201.756,150.995 200.407 C 151.490 199.873,152.660 198.608,153.595 197.595 L 155.295 195.752 156.353 196.450 C 156.935 196.834,158.086 197.506,158.912 197.943 C 159.737 198.380,160.951 199.061,161.608 199.456 C 164.663 201.290,162.082 197.636,158.637 195.249 C 156.789 193.968,156.807 193.894,159.762 190.710 C 162.705 187.538,162.423 187.614,164.820 189.336 C 169.164 192.457,170.332 191.204,166.371 187.674 L 164.252 185.784 165.399 184.637 C 166.778 183.258,166.688 183.264,169.037 184.398 C 171.422 185.548,177.730 187.873,179.056 188.090 C 181.456 188.482,181.390 186.435,178.888 182.820 C 174.920 177.087,172.378 173.429,171.398 172.045 C 170.814 171.220,169.666 169.584,168.847 168.410 C 167.205 166.055,166.768 165.659,166.426 166.213 M105.418 250.590 C 106.901 251.686,107.753 253.078,108.247 255.216 C 109.576 260.965,103.529 261.149,100.821 255.442 C 98.826 251.238,101.900 247.993,105.418 250.590 " stroke="none" fill="#ffffff" fill-rule="evenodd"></path><path id="path2" d="M187.617 21.237 C 125.045 25.461,68.553 65.162,44.573 121.764 C 40.490 131.401,36.940 142.053,35.267 149.683 C 34.842 151.624,34.430 153.315,34.352 153.441 C 33.933 154.120,31.480 171.707,31.156 176.360 C 26.158 248.099,65.969 314.396,131.144 342.874 C 137.970 345.856,139.145 346.312,145.270 348.356 C 162.877 354.232,179.300 356.841,198.687 356.841 C 220.488 356.841,243.522 352.554,260.600 345.318 C 335.184 313.719,376.578 241.381,364.692 163.415 C 353.212 88.114,294.893 32.068,217.448 21.911 C 213.499 21.393,192.376 20.916,187.617 21.237 M114.930 118.981 C 116.049 119.491,117.073 121.184,117.073 122.524 L 117.073 123.544 214.165 123.305 C 320.247 123.045,324.565 122.982,326.233 121.670 C 329.664 118.970,337.735 123.509,340.853 129.892 C 343.381 135.065,343.411 139.581,340.962 145.779 C 339.776 148.777,339.775 148.790,339.775 155.910 C 339.775 166.154,338.528 168.820,332.555 171.347 L 330.019 172.420 298.593 172.420 C 281.309 172.420,267.167 172.494,267.167 172.584 C 267.167 172.674,267.533 173.137,267.981 173.614 C 269.143 174.850,268.837 174.918,265.079 174.251 C 256.952 172.811,251.255 174.814,248.747 179.993 C 247.823 181.903,247.767 180.206,249.390 199.584 C 250.119 208.282,250.181 208.037,247.135 208.417 C 233.351 210.135,210.908 210.841,202.439 209.823 C 197.017 209.171,189.741 207.956,188.550 207.503 C 187.398 207.064,182.890 206.004,182.181 206.004 C 181.165 206.004,176.701 211.755,175.046 215.197 C 173.086 219.273,172.396 221.835,171.875 226.975 C 171.505 230.620,170.544 233.396,169.650 233.396 C 169.502 233.396,168.264 234.501,166.900 235.852 C 162.459 240.250,161.515 243.703,162.693 251.238 C 162.980 253.073,162.200 254.150,158.378 257.200 C 153.762 260.883,152.717 263.442,151.787 273.335 C 150.919 282.557,148.334 286.710,142.890 287.630 L 141.320 287.895 142.542 288.892 C 145.720 291.486,143.366 296.432,138.579 297.219 C 137.585 297.383,126.023 297.526,112.885 297.539 L 88.997 297.561 88.026 296.406 C 86.329 294.390,86.876 291.008,89.260 288.767 C 90.895 287.229,90.764 287.054,87.979 287.054 C 77.810 287.054,71.823 281.145,73.189 272.456 C 73.701 269.195,74.605 266.665,77.756 259.662 C 79.196 256.463,80.715 253.086,81.132 252.158 C 88.693 235.334,90.358 232.348,95.673 226.079 C 102.303 218.259,106.153 211.058,109.716 199.812 C 112.936 189.650,113.359 188.151,113.926 184.887 C 116.069 172.573,112.092 165.653,101.790 163.768 C 95.396 162.598,94.526 161.386,95.438 154.921 C 95.769 152.576,96.392 147.280,96.822 143.152 C 98.852 123.651,98.924 123.478,105.141 123.426 C 109.069 123.393,109.478 123.220,110.457 121.182 C 111.549 118.906,113.096 118.146,114.930 118.981 M232.266 173.542 C 232.901 174.306,233.029 174.280,223.265 175.404 C 218.621 175.938,212.487 176.657,209.634 177.001 C 205.256 177.528,204.396 177.546,204.128 177.111 C 203.634 176.311,202.819 177.194,201.527 179.928 C 199.198 184.857,199.143 188.700,201.307 195.057 C 202.694 199.129,202.870 200.438,202.249 202.071 L 201.871 203.064 216.039 202.916 C 231.886 202.750,232.390 202.677,235.879 200.040 C 241.909 195.482,242.704 181.976,237.294 175.988 C 235.393 173.884,230.625 171.564,232.266 173.542 M188.944 193.145 C 187.339 195.508,187.812 196.993,190.552 198.189 C 192.350 198.974,194.371 199.652,194.371 199.471 C 194.371 199.415,193.528 197.865,192.496 196.026 C 191.465 194.187,190.620 192.472,190.620 192.214 C 190.618 191.340,189.900 191.739,188.944 193.145 " stroke="none" fill="#b36404" fill-rule="evenodd"></path><path id="path3" d="M195.983 20.917 C 197.592 20.988,200.125 20.987,201.612 20.916 C 203.099 20.845,201.782 20.787,198.687 20.788 C 195.591 20.788,194.375 20.847,195.983 20.917 M187.148 21.278 C 187.613 21.367,188.372 21.367,188.837 21.278 C 189.301 21.189,188.921 21.115,187.992 21.115 C 187.064 21.115,186.684 21.189,187.148 21.278 M208.537 21.278 C 209.001 21.367,209.761 21.367,210.225 21.278 C 210.689 21.189,210.310 21.115,209.381 21.115 C 208.452 21.115,208.072 21.189,208.537 21.278 M221.764 22.496 C 222.701 22.814,225.030 23.013,224.734 22.750 C 224.648 22.673,223.734 22.513,222.702 22.394 C 221.436 22.247,221.131 22.281,221.764 22.496 M149.906 27.767 C 149.433 27.971,149.364 28.090,149.719 28.090 C 150.028 28.090,150.619 27.945,151.032 27.767 C 151.505 27.564,151.574 27.445,151.220 27.445 C 150.910 27.445,150.319 27.590,149.906 27.767 M246.341 27.767 C 246.754 27.945,247.345 28.090,247.655 28.090 C 248.010 28.090,247.940 27.971,247.467 27.767 C 247.054 27.590,246.463 27.445,246.154 27.445 C 245.799 27.445,245.868 27.564,246.341 27.767 M260.038 32.458 C 260.553 32.753,261.144 32.994,261.351 32.994 C 261.557 32.994,261.304 32.753,260.788 32.458 C 260.272 32.163,259.681 31.922,259.475 31.922 C 259.268 31.922,259.522 32.163,260.038 32.458 M294.559 50.793 C 294.559 50.896,295.066 51.341,295.685 51.782 C 296.304 52.223,296.811 52.500,296.811 52.396 C 296.811 52.293,296.304 51.848,295.685 51.407 C 295.066 50.966,294.559 50.690,294.559 50.793 M85.909 64.071 L 84.615 65.478 86.023 64.185 C 87.332 62.982,87.602 62.664,87.316 62.664 C 87.253 62.664,86.620 63.297,85.909 64.071 M311.069 63.977 C 311.770 64.700,312.427 65.291,312.530 65.291 C 312.633 65.291,312.145 64.700,311.445 63.977 C 310.745 63.255,310.087 62.664,309.984 62.664 C 309.881 62.664,310.369 63.255,311.069 63.977 M79.550 69.981 C 78.012 71.529,76.839 72.795,76.942 72.795 C 77.045 72.795,78.387 71.529,79.925 69.981 C 81.462 68.433,82.636 67.167,82.533 67.167 C 82.430 67.167,81.087 68.433,79.550 69.981 M317.636 70.169 C 319.070 71.614,320.327 72.795,320.430 72.795 C 320.533 72.795,319.445 71.614,318.011 70.169 C 316.578 68.724,315.320 67.542,315.217 67.542 C 315.114 67.542,316.202 68.724,317.636 70.169 M73.710 76.266 L 72.608 77.486 73.827 76.384 C 74.964 75.357,75.219 75.047,74.929 75.047 C 74.865 75.047,74.316 75.596,73.710 76.266 M323.452 76.360 C 324.152 77.083,324.810 77.674,324.913 77.674 C 325.016 77.674,324.527 77.083,323.827 76.360 C 323.127 75.638,322.470 75.047,322.367 75.047 C 322.264 75.047,322.752 75.638,323.452 76.360 M324.953 78.166 C 324.953 78.231,325.502 78.780,326.173 79.386 L 327.392 80.488 326.290 79.268 C 325.263 78.132,324.953 77.876,324.953 78.166 M328.475 82.288 C 329.271 83.258,330.000 84.053,330.095 84.053 C 330.351 84.053,327.975 81.107,327.465 80.792 C 327.225 80.644,327.680 81.317,328.475 82.288 M61.163 91.932 C 60.722 92.552,60.446 93.058,60.549 93.058 C 60.652 93.058,61.098 92.552,61.538 91.932 C 61.979 91.313,62.256 90.807,62.152 90.807 C 62.049 90.807,61.604 91.313,61.163 91.932 M352.747 121.764 C 352.747 121.970,352.988 122.561,353.283 123.077 C 353.578 123.593,353.820 123.846,353.820 123.640 C 353.820 123.433,353.578 122.842,353.283 122.326 C 352.988 121.811,352.747 121.557,352.747 121.764 M42.087 127.033 C 41.459 128.413,41.578 128.707,42.258 127.453 C 42.576 126.867,42.765 126.317,42.679 126.232 C 42.594 126.146,42.327 126.506,42.087 127.033 M359.903 141.463 C 359.903 141.773,360.048 142.364,360.225 142.777 C 360.428 143.250,360.548 143.319,360.548 142.964 C 360.548 142.655,360.403 142.064,360.225 141.651 C 360.022 141.178,359.903 141.109,359.903 141.463 M362.176 149.906 C 362.176 150.319,362.311 151.079,362.477 151.595 C 362.714 152.338,362.777 152.377,362.777 151.782 C 362.777 151.370,362.642 150.610,362.477 150.094 C 362.239 149.351,362.176 149.312,362.176 149.906 M34.381 152.017 C 34.068 153.581,34.371 153.884,34.709 152.345 C 34.852 151.697,34.890 151.088,34.794 150.992 C 34.699 150.896,34.513 151.358,34.381 152.017 M32.357 163.977 C 32.357 164.700,32.434 164.995,32.529 164.634 C 32.623 164.273,32.623 163.682,32.529 163.321 C 32.434 162.960,32.357 163.255,32.357 163.977 M364.815 163.977 C 364.815 164.700,364.892 164.995,364.987 164.634 C 365.081 164.273,365.081 163.682,364.987 163.321 C 364.892 162.960,364.815 163.255,364.815 163.977 M166.371 165.928 C 166.216 166.179,166.284 166.239,166.541 166.080 C 166.798 165.921,167.456 166.517,168.193 167.578 C 170.261 170.551,170.862 171.063,169.156 168.398 C 167.495 165.804,166.818 165.203,166.371 165.928 M31.232 172.608 C 31.232 173.330,31.309 173.626,31.403 173.265 C 31.498 172.903,31.498 172.312,31.403 171.951 C 31.309 171.590,31.232 171.886,31.232 172.608 M365.941 172.608 C 365.941 173.330,366.018 173.626,366.112 173.265 C 366.207 172.903,366.207 172.312,366.112 171.951 C 366.018 171.590,365.941 171.886,365.941 172.608 M164.542 174.847 C 164.397 176.285,164.392 178.287,164.531 179.296 C 164.729 180.737,164.651 181.261,164.166 181.747 C 163.826 182.086,163.720 182.364,163.929 182.364 C 164.702 182.364,164.890 181.318,164.924 176.829 C 164.963 171.535,164.905 171.231,164.542 174.847 M173.580 175.218 C 174.723 176.878,175.738 178.236,175.833 178.236 C 176.088 178.236,172.313 172.702,171.873 172.430 C 171.668 172.303,172.436 173.558,173.580 175.218 M30.871 178.236 C 30.871 179.165,30.945 179.545,31.034 179.081 C 31.123 178.616,31.123 177.856,31.034 177.392 C 30.945 176.928,30.871 177.308,30.871 178.236 M366.331 178.236 C 366.331 179.165,366.404 179.545,366.494 179.081 C 366.583 178.616,366.583 177.856,366.494 177.392 C 366.404 176.928,366.331 177.308,366.331 178.236 M176.326 179.174 C 176.541 179.587,177.244 180.516,177.888 181.238 C 178.878 182.349,178.939 182.378,178.283 181.426 C 177.093 179.699,175.860 178.280,176.326 179.174 M167.917 184.240 C 168.537 184.650,169.212 184.986,169.418 184.987 C 169.625 184.987,169.241 184.651,168.565 184.239 C 166.972 183.267,166.450 183.269,167.917 184.240 M30.537 188.931 C 30.538 191.407,30.599 192.371,30.672 191.073 C 30.746 189.776,30.745 187.749,30.671 186.571 C 30.597 185.392,30.537 186.454,30.537 188.931 M164.918 185.130 C 164.257 185.613,164.370 185.795,166.722 188.045 C 168.102 189.365,169.231 190.340,169.231 190.212 C 169.231 190.083,168.280 189.079,167.119 187.980 C 165.307 186.267,165.067 185.885,165.433 185.299 C 165.944 184.480,165.849 184.449,164.918 185.130 M366.749 189.118 C 366.749 191.698,366.809 192.753,366.882 191.463 C 366.955 190.174,366.955 188.063,366.882 186.773 C 366.809 185.483,366.749 186.538,366.749 189.118 M171.295 185.741 C 171.707 185.918,172.298 186.064,172.608 186.064 C 172.963 186.064,172.893 185.944,172.420 185.741 C 172.008 185.564,171.417 185.419,171.107 185.419 C 170.752 185.419,170.822 185.538,171.295 185.741 M148.593 188.386 C 149.894 189.270,150.636 189.527,149.719 188.776 C 149.203 188.354,148.612 188.008,148.405 188.007 C 148.199 188.005,148.283 188.176,148.593 188.386 M155.623 190.889 C 154.603 191.909,154.601 191.910,153.380 191.233 L 152.158 190.557 153.096 191.330 C 154.340 192.356,154.639 192.321,155.910 190.994 C 157.256 189.590,157.012 189.500,155.623 190.889 M149.343 191.131 C 149.343 191.234,149.850 191.679,150.469 192.120 C 151.088 192.561,151.595 192.837,151.595 192.734 C 151.595 192.631,151.088 192.186,150.469 191.745 C 149.850 191.304,149.343 191.028,149.343 191.131 M158.232 192.422 C 157.137 193.564,156.978 194.175,157.662 194.599 C 157.965 194.786,158.020 194.658,157.838 194.184 C 157.656 193.709,157.888 193.172,158.595 192.434 C 159.156 191.849,159.531 191.370,159.427 191.370 C 159.324 191.370,158.786 191.843,158.232 192.422 M152.158 193.996 C 152.158 194.576,152.284 194.972,152.439 194.876 C 152.594 194.781,152.720 194.385,152.720 193.996 C 152.720 193.608,152.594 193.212,152.439 193.116 C 152.284 193.020,152.158 193.417,152.158 193.996 M158.537 194.996 C 160.613 197.045,163.236 199.223,161.914 197.800 C 161.088 196.912,159.906 195.834,159.287 195.405 C 158.668 194.976,158.330 194.792,158.537 194.996 M137.676 195.806 C 137.904 196.232,138.275 196.695,138.501 196.835 C 138.795 197.017,138.794 196.869,138.497 196.314 C 138.269 195.888,137.897 195.425,137.672 195.285 C 137.377 195.103,137.379 195.251,137.676 195.806 M140.338 197.885 C 140.338 197.988,140.844 198.433,141.463 198.874 C 142.083 199.315,142.589 199.591,142.589 199.488 C 142.589 199.385,142.083 198.940,141.463 198.499 C 140.844 198.058,140.338 197.782,140.338 197.885 M30.871 199.625 C 30.871 200.553,30.945 200.933,31.034 200.469 C 31.123 200.005,31.123 199.245,31.034 198.780 C 30.945 198.316,30.871 198.696,30.871 199.625 M366.331 199.625 C 366.331 200.553,366.404 200.933,366.494 200.469 C 366.583 200.005,366.583 199.245,366.494 198.780 C 366.404 198.316,366.331 198.696,366.331 199.625 M144.278 200.862 L 145.779 202.182 144.869 203.155 C 144.369 203.690,144.088 204.128,144.246 204.128 C 144.630 204.128,145.940 202.537,145.946 202.064 C 145.948 201.857,145.236 201.206,144.363 200.615 L 142.777 199.542 144.278 200.862 M150.473 200.933 C 149.843 201.693,150.176 202.378,151.659 203.366 L 152.908 204.199 151.685 203.131 C 150.290 201.913,150.250 201.774,151.059 200.965 C 151.383 200.641,151.488 200.375,151.292 200.375 C 151.096 200.375,150.728 200.626,150.473 200.933 M131.048 202.846 C 131.178 203.057,132.342 204.060,133.633 205.074 C 134.924 206.089,135.874 206.746,135.744 206.535 C 135.613 206.324,134.450 205.321,133.159 204.307 C 131.867 203.292,130.918 202.635,131.048 202.846 M133.959 202.799 C 133.959 202.902,134.634 203.331,135.460 203.752 C 136.285 204.173,136.961 204.434,136.961 204.330 C 136.961 204.227,136.285 203.798,135.460 203.377 C 134.634 202.956,133.959 202.696,133.959 202.799 M147.256 204.972 L 146.154 206.191 147.343 205.118 C 148.063 204.469,148.715 204.159,148.996 204.332 C 149.294 204.516,149.364 204.464,149.192 204.186 C 148.779 203.518,148.448 203.652,147.256 204.972 M154.221 205.441 C 154.921 206.163,155.579 206.754,155.682 206.754 C 155.785 206.754,155.297 206.163,154.597 205.441 C 153.897 204.719,153.239 204.128,153.136 204.128 C 153.033 204.128,153.521 204.719,154.221 205.441 M137.336 204.639 C 137.336 204.743,137.842 205.188,138.462 205.629 C 139.081 206.069,139.587 206.346,139.587 206.242 C 139.587 206.139,139.081 205.694,138.462 205.253 C 137.842 204.812,137.336 204.536,137.336 204.639 M149.719 204.626 C 149.719 204.782,154.683 208.577,155.629 209.144 C 157.486 210.258,152.462 206.213,150.190 204.766 C 149.931 204.601,149.719 204.538,149.719 204.626 M144.102 209.225 C 144.118 209.697,144.772 210.434,146.734 212.193 C 148.236 213.540,148.196 213.465,146.341 211.451 C 145.206 210.219,144.235 209.136,144.184 209.046 C 144.132 208.955,144.095 209.035,144.102 209.225 M124.203 209.893 C 124.203 209.996,124.709 210.441,125.328 210.882 C 125.947 211.323,126.454 211.599,126.454 211.496 C 126.454 211.393,125.947 210.947,125.328 210.507 C 124.709 210.066,124.203 209.789,124.203 209.893 M138.462 211.257 C 138.021 211.876,137.744 212.383,137.848 212.383 C 137.951 212.383,138.396 211.876,138.837 211.257 C 139.278 210.638,139.554 210.131,139.451 210.131 C 139.348 210.131,138.902 210.638,138.462 211.257 M130.582 211.769 C 130.582 211.872,131.088 212.317,131.707 212.758 C 132.326 213.199,132.833 213.475,132.833 213.372 C 132.833 213.269,132.326 212.824,131.707 212.383 C 131.088 211.942,130.582 211.666,130.582 211.769 M136.481 213.922 C 135.434 215.116,135.184 215.599,135.817 215.208 C 136.207 214.967,137.844 212.758,137.633 212.758 C 137.561 212.758,137.043 213.282,136.481 213.922 M129.456 213.591 C 129.456 213.665,130.258 214.384,131.238 215.190 C 132.219 215.995,132.683 216.266,132.270 215.791 C 131.541 214.952,129.456 213.322,129.456 213.591 M145.403 214.227 C 146.133 215.066,148.218 216.696,148.218 216.428 C 148.218 216.354,147.416 215.635,146.435 214.829 C 145.455 214.023,144.991 213.753,145.403 214.227 M115.768 214.553 C 116.366 215.065,118.265 215.795,118.036 215.424 C 117.920 215.237,117.280 214.893,116.613 214.661 C 115.947 214.429,115.567 214.380,115.768 214.553 M138.864 215.623 C 137.918 216.826,137.906 217.027,138.743 217.684 C 139.335 218.148,139.350 218.136,138.896 217.555 C 138.464 217.004,138.508 216.748,139.203 215.773 C 140.198 214.375,139.937 214.259,138.864 215.623 M150.469 215.760 C 150.882 216.173,151.330 216.510,151.465 216.510 C 151.600 216.510,151.405 216.173,151.032 215.760 C 150.658 215.347,150.210 215.009,150.036 215.009 C 149.861 215.009,150.056 215.347,150.469 215.760 M139.987 218.590 C 140.549 219.391,144.090 222.725,144.090 222.454 C 144.090 222.369,143.046 221.292,141.769 220.061 C 140.492 218.831,139.690 218.169,139.987 218.590 M135.650 219.508 C 135.517 219.723,135.673 219.782,136.022 219.648 C 136.380 219.511,137.035 219.779,137.636 220.309 L 138.649 221.201 137.739 220.169 C 136.799 219.102,136.048 218.864,135.650 219.508 M130.653 221.656 C 129.982 222.577,129.846 222.621,129.215 222.125 C 128.574 221.620,128.559 221.629,129.033 222.233 C 129.741 223.135,130.030 223.065,130.957 221.764 C 131.398 221.144,131.677 220.638,131.577 220.638 C 131.477 220.638,131.061 221.096,130.653 221.656 M139.942 222.266 C 141.320 223.729,141.463 223.828,141.463 223.309 C 141.463 223.127,140.830 222.509,140.056 221.935 L 138.649 220.892 139.942 222.266 M146.341 224.552 C 146.341 224.697,146.763 225.368,147.278 226.043 C 147.793 226.718,148.088 227.409,147.934 227.579 C 147.781 227.749,147.874 227.761,148.142 227.606 C 148.440 227.435,148.502 227.156,148.303 226.890 C 146.715 224.769,146.341 224.324,146.341 224.552 M113.321 226.058 C 113.321 226.111,114.207 226.691,115.291 227.347 L 117.261 228.540 115.947 227.425 C 114.852 226.496,113.321 225.699,113.321 226.058 M134.549 226.735 C 134.655 226.993,135.198 227.527,135.757 227.922 C 136.771 228.639,136.771 228.638,135.671 227.453 C 134.467 226.157,134.258 226.023,134.549 226.735 M130.937 227.431 C 131.441 227.633,132.040 227.917,132.268 228.064 C 132.495 228.210,132.359 228.035,131.965 227.674 C 131.571 227.312,130.972 227.028,130.634 227.041 C 130.245 227.056,130.356 227.199,130.937 227.431 M120.826 228.294 C 120.826 229.186,124.324 230.804,124.896 230.177 C 125.474 229.543,125.473 229.529,124.878 229.976 C 124.336 230.383,123.980 230.277,122.532 229.281 C 121.594 228.635,120.826 228.191,120.826 228.294 M117.448 228.637 C 117.448 228.728,118.757 229.761,120.356 230.933 C 121.956 232.105,122.705 232.568,122.020 231.962 C 120.536 230.649,117.448 228.402,117.448 228.637 M133.396 228.779 C 134.604 230.013,137.036 231.935,136.210 231.003 C 135.694 230.422,134.765 229.597,134.146 229.171 C 133.527 228.745,133.189 228.569,133.396 228.779 M137.336 228.960 C 137.336 229.050,138.294 230.042,139.465 231.166 C 140.636 232.289,141.438 232.946,141.248 232.625 C 140.878 232.004,137.336 228.686,137.336 228.960 M139.962 234.334 C 140.663 235.056,141.320 235.647,141.423 235.647 C 141.526 235.647,141.038 235.056,140.338 234.334 C 139.638 233.612,138.980 233.021,138.877 233.021 C 138.774 233.021,139.262 233.612,139.962 234.334 M142.956 234.510 C 143.393 235.123,143.941 235.743,144.176 235.888 C 144.410 236.033,144.129 235.531,143.551 234.773 C 142.296 233.129,141.824 232.920,142.956 234.510 M106.598 233.910 C 107.108 234.365,112.191 237.069,112.022 236.797 C 111.805 236.445,107.082 233.771,106.679 233.771 C 106.548 233.771,106.512 233.834,106.598 233.910 M124.281 235.929 C 123.884 236.496,123.360 237.341,123.117 237.805 C 122.327 239.315,122.936 238.696,124.131 236.773 C 125.379 234.765,125.476 234.224,124.281 235.929 M125.715 235.178 C 125.722 235.333,126.186 235.784,126.747 236.180 L 127.767 236.900 126.858 235.899 C 125.902 234.846,125.696 234.716,125.715 235.178 M120.638 236.398 C 120.318 237.017,120.140 237.523,120.243 237.523 C 120.347 237.523,120.693 237.017,121.013 236.398 C 121.333 235.779,121.511 235.272,121.408 235.272 C 121.304 235.272,120.958 235.779,120.638 236.398 M130.582 235.765 C 130.582 235.829,131.130 236.378,131.801 236.984 L 133.021 238.086 131.919 236.867 C 130.891 235.730,130.582 235.475,130.582 235.765 M143.292 236.867 C 143.575 237.228,144.039 237.523,144.324 237.523 C 144.608 237.523,144.838 237.228,144.835 236.867 C 144.830 236.328,144.768 236.306,144.488 236.749 C 144.192 237.217,144.057 237.217,143.462 236.749 C 142.835 236.256,142.820 236.266,143.292 236.867 M99.302 239.103 C 99.176 239.576,99.087 240.300,99.105 240.713 C 99.123 241.126,99.292 240.805,99.481 240.000 C 99.847 238.440,99.690 237.655,99.302 239.103 M135.084 240.268 C 135.084 240.332,135.633 240.881,136.304 241.487 L 137.523 242.589 136.421 241.370 C 135.394 240.233,135.084 239.978,135.084 240.268 M133.583 241.839 C 134.284 242.561,134.941 243.152,135.044 243.152 C 135.147 243.152,134.659 242.561,133.959 241.839 C 133.259 241.116,132.601 240.525,132.498 240.525 C 132.395 240.525,132.883 241.116,133.583 241.839 M138.136 243.305 C 138.418 243.699,139.114 244.519,139.681 245.127 C 141.177 246.731,141.065 247.564,139.493 246.524 L 138.274 245.717 139.378 246.663 C 141.702 248.657,141.684 246.852,139.356 244.408 C 138.403 243.408,137.854 242.911,138.136 243.305 M136.638 244.465 C 137.319 245.188,137.929 245.779,137.992 245.779 C 138.306 245.779,136.400 243.536,135.935 243.358 C 135.640 243.245,135.956 243.743,136.638 244.465 M124.390 244.925 C 124.597 245.120,125.610 245.740,126.642 246.303 C 127.674 246.866,128.180 247.050,127.767 246.711 C 126.928 246.022,123.802 244.369,124.390 244.925 M98.023 248.405 C 98.023 249.128,98.100 249.423,98.195 249.062 C 98.289 248.701,98.289 248.110,98.195 247.749 C 98.100 247.387,98.023 247.683,98.023 248.405 M100.772 250.740 C 100.448 251.202,100.210 252.248,100.238 253.085 L 100.288 254.597 100.532 252.857 C 100.666 251.900,101.002 250.845,101.278 250.512 C 101.554 250.179,101.685 249.906,101.568 249.906 C 101.451 249.906,101.093 250.281,100.772 250.740 M106.001 251.408 C 107.780 253.487,107.805 253.510,107.397 252.720 C 107.185 252.308,106.531 251.548,105.944 251.033 L 104.878 250.097 106.001 251.408 M97.684 253.471 C 97.686 254.916,97.754 255.461,97.835 254.682 C 97.916 253.904,97.915 252.722,97.832 252.055 C 97.749 251.389,97.682 252.026,97.684 253.471 M133.408 251.343 C 133.549 251.617,133.800 252.292,133.967 252.844 C 134.210 253.648,134.276 253.694,134.302 253.074 C 134.319 252.649,134.068 251.973,133.743 251.573 C 133.418 251.172,133.268 251.069,133.408 251.343 M133.269 257.990 C 132.641 259.370,132.760 259.664,133.440 258.410 C 133.758 257.824,133.947 257.274,133.861 257.189 C 133.776 257.103,133.509 257.463,133.269 257.990 M46.154 260.181 C 46.154 260.584,47.270 262.664,47.486 262.664 C 47.590 262.664,47.395 262.115,47.054 261.445 C 46.357 260.075,46.154 259.789,46.154 260.181 M130.949 261.820 C 129.139 263.748,128.230 265.044,129.842 263.400 C 131.492 261.717,132.618 260.413,132.422 260.413 C 132.339 260.413,131.676 261.046,130.949 261.820 M48.030 263.930 C 48.030 264.335,49.521 267.167,49.734 267.167 C 49.837 267.167,49.560 266.449,49.117 265.572 C 48.247 263.847,48.030 263.519,48.030 263.930 M348.479 265.108 C 348.135 265.828,347.932 266.417,348.026 266.417 C 348.283 266.417,349.422 264.119,349.251 263.947 C 349.169 263.866,348.822 264.388,348.479 265.108 M125.328 266.844 C 122.395 268.960,122.083 269.437,124.836 267.597 C 126.113 266.743,127.263 265.875,127.391 265.668 C 127.722 265.132,127.624 265.187,125.328 266.844 M105.441 279.771 C 103.893 280.468,102.880 281.041,103.189 281.044 C 103.838 281.051,108.443 278.933,108.443 278.628 C 108.443 278.516,108.401 278.442,108.349 278.464 C 108.297 278.486,106.989 279.074,105.441 279.771 M60.788 285.553 C 61.229 286.173,61.674 286.679,61.777 286.679 C 61.880 286.679,61.604 286.173,61.163 285.553 C 60.722 284.934,60.277 284.428,60.174 284.428 C 60.071 284.428,60.347 284.934,60.788 285.553 M63.790 289.681 C 64.231 290.300,64.676 290.807,64.779 290.807 C 64.882 290.807,64.606 290.300,64.165 289.681 C 63.724 289.062,63.279 288.555,63.176 288.555 C 63.073 288.555,63.349 289.062,63.790 289.681 M67.913 294.929 C 68.565 295.752,69.294 296.546,69.533 296.694 C 69.773 296.842,69.318 296.169,68.523 295.198 C 67.727 294.228,66.998 293.433,66.903 293.433 C 66.807 293.433,67.262 294.106,67.913 294.929 M328.851 295.198 C 328.055 296.169,327.600 296.842,327.840 296.694 C 328.350 296.379,330.727 293.433,330.471 293.433 C 330.375 293.433,329.646 294.228,328.851 295.198 M69.794 297.303 C 69.794 297.368,70.342 297.917,71.013 298.523 L 72.233 299.625 71.131 298.405 C 70.103 297.268,69.794 297.013,69.794 297.303 M326.243 298.405 L 325.141 299.625 326.360 298.523 C 327.031 297.917,327.580 297.368,327.580 297.303 C 327.580 297.013,327.270 297.268,326.243 298.405 M73.171 301.126 C 73.871 301.848,74.528 302.439,74.631 302.439 C 74.734 302.439,74.246 301.848,73.546 301.126 C 72.846 300.403,72.189 299.812,72.085 299.812 C 71.982 299.812,72.471 300.403,73.171 301.126 M323.616 301.407 L 322.514 302.627 323.734 301.525 C 324.404 300.918,324.953 300.370,324.953 300.305 C 324.953 300.015,324.643 300.270,323.616 301.407 M79.550 307.880 C 81.916 310.253,83.937 312.195,84.040 312.195 C 84.143 312.195,82.292 310.253,79.925 307.880 C 77.558 305.507,75.538 303.565,75.434 303.565 C 75.331 303.565,77.183 305.507,79.550 307.880 M317.630 307.786 L 313.508 312.008 317.730 307.886 C 321.651 304.058,322.122 303.565,321.851 303.565 C 321.796 303.565,319.896 305.464,317.630 307.786 M86.304 314.259 C 87.004 314.981,87.661 315.572,87.764 315.572 C 87.868 315.572,87.379 314.981,86.679 314.259 C 85.979 313.537,85.322 312.946,85.219 312.946 C 85.115 312.946,85.604 313.537,86.304 314.259 M310.858 314.165 L 309.756 315.385 310.976 314.283 C 311.646 313.676,312.195 313.128,312.195 313.063 C 312.195 312.773,311.886 313.028,310.858 314.165 M118.949 337.133 C 118.949 337.236,119.625 337.665,120.450 338.086 C 121.276 338.507,121.951 338.768,121.951 338.664 C 121.951 338.561,121.276 338.132,120.450 337.711 C 119.625 337.290,118.949 337.030,118.949 337.133 M276.829 337.737 C 276.055 338.145,275.422 338.563,275.422 338.666 C 275.422 338.768,276.098 338.507,276.923 338.086 C 277.749 337.665,278.424 337.240,278.424 337.141 C 278.424 336.895,278.421 336.896,276.829 337.737 M123.859 339.729 C 124.242 340.076,127.205 341.459,127.205 341.291 C 127.205 341.078,124.373 339.587,123.967 339.587 C 123.822 339.587,123.773 339.651,123.859 339.729 M271.295 340.525 C 270.366 341.023,269.775 341.430,269.981 341.430 C 270.188 341.430,271.116 341.023,272.045 340.525 C 272.974 340.028,273.565 339.621,273.358 339.621 C 273.152 339.621,272.223 340.028,271.295 340.525 M130.206 342.777 C 130.722 343.072,131.313 343.313,131.520 343.313 C 131.726 343.313,131.473 343.072,130.957 342.777 C 130.441 342.482,129.850 342.240,129.644 342.240 C 129.437 342.240,129.690 342.482,130.206 342.777 M266.417 342.777 C 265.901 343.072,265.647 343.313,265.854 343.313 C 266.060 343.313,266.651 343.072,267.167 342.777 C 267.683 342.482,267.936 342.240,267.730 342.240 C 267.523 342.240,266.932 342.482,266.417 342.777 M135.460 345.028 C 135.976 345.323,136.567 345.564,136.773 345.564 C 136.979 345.564,136.726 345.323,136.210 345.028 C 135.694 344.733,135.103 344.492,134.897 344.492 C 134.690 344.492,134.944 344.733,135.460 345.028 M141.839 347.404 C 142.148 347.595,142.824 347.865,143.340 348.003 C 143.992 348.177,144.106 348.147,143.715 347.906 C 143.405 347.714,142.730 347.445,142.214 347.307 C 141.562 347.133,141.447 347.162,141.839 347.404 M254.221 347.668 C 253.283 348.120,253.252 348.172,254.034 347.981 C 255.097 347.721,256.292 347.112,255.722 347.120 C 255.516 347.123,254.841 347.370,254.221 347.668 M170.075 354.855 C 170.436 354.950,171.027 354.950,171.388 354.855 C 171.750 354.761,171.454 354.684,170.732 354.684 C 170.009 354.684,169.714 354.761,170.075 354.855 M225.985 354.855 C 226.346 354.950,226.937 354.950,227.298 354.855 C 227.659 354.761,227.364 354.684,226.642 354.684 C 225.919 354.684,225.624 354.761,225.985 354.855 M185.835 356.742 C 186.402 356.828,187.331 356.828,187.899 356.742 C 188.466 356.656,188.002 356.585,186.867 356.585 C 185.732 356.585,185.267 356.656,185.835 356.742 M209.475 356.742 C 210.042 356.828,210.971 356.828,211.538 356.742 C 212.106 356.656,211.642 356.585,210.507 356.585 C 209.371 356.585,208.907 356.656,209.475 356.742 M194.444 357.128 C 196.652 357.194,200.366 357.194,202.700 357.128 C 205.033 357.062,203.227 357.008,198.687 357.008 C 194.146 357.008,192.237 357.062,194.444 357.128 " stroke="none" fill="#9c9a98" fill-rule="evenodd"></path><path id="path4" d="M112.370 118.931 C 111.950 119.101,111.362 119.555,111.063 119.939 C 110.545 120.605,110.555 120.608,111.264 120.013 C 111.673 119.670,112.598 119.221,113.321 119.015 C 114.043 118.810,114.296 118.637,113.884 118.632 C 113.471 118.626,112.790 118.761,112.370 118.931 M116.180 120.438 C 116.338 120.740,116.564 121.584,116.683 122.314 L 116.898 123.640 194.753 123.641 L 272.608 123.642 194.841 123.546 L 117.073 123.450 117.073 122.397 C 117.073 121.818,116.807 121.016,116.482 120.616 C 116.158 120.215,116.021 120.135,116.180 120.438 M326.402 121.598 L 325.516 122.371 326.642 121.712 C 328.123 120.844,328.145 120.826,327.684 120.826 C 327.466 120.826,326.889 121.173,326.402 121.598 M315.103 122.980 C 316.599 123.052,319.048 123.052,320.544 122.980 C 322.040 122.909,320.816 122.851,317.824 122.851 C 314.831 122.851,313.607 122.909,315.103 122.980 M334.334 122.806 C 334.334 122.877,334.883 123.338,335.553 123.829 C 336.308 124.381,336.570 124.472,336.241 124.066 C 335.741 123.451,334.334 122.521,334.334 122.806 M284.543 123.357 C 286.979 123.423,290.863 123.423,293.173 123.357 C 295.483 123.291,293.490 123.238,288.743 123.238 C 283.996 123.238,282.106 123.292,284.543 123.357 M100.657 124.199 C 99.986 124.607,99.437 125.033,99.437 125.144 C 99.437 125.255,99.893 125.046,100.449 124.680 C 101.143 124.224,102.531 123.947,104.858 123.799 L 108.255 123.584 105.066 123.519 C 102.470 123.467,101.649 123.593,100.657 124.199 M337.780 125.897 C 338.333 126.513,339.389 128.020,340.125 129.246 C 340.861 130.472,341.463 131.301,341.463 131.087 C 341.463 130.457,338.655 126.331,337.675 125.522 C 336.889 124.873,336.902 124.921,337.780 125.897 M98.023 133.208 C 98.023 133.931,98.100 134.226,98.195 133.865 C 98.289 133.504,98.289 132.913,98.195 132.552 C 98.100 132.190,98.023 132.486,98.023 133.208 M97.397 137.359 C 97.252 138.831,97.211 140.113,97.307 140.209 C 97.402 140.304,97.601 139.180,97.749 137.711 C 97.896 136.242,97.937 134.960,97.839 134.862 C 97.741 134.764,97.542 135.888,97.397 137.359 M342.696 138.274 C 342.699 139.306,342.772 139.683,342.858 139.113 C 342.945 138.543,342.942 137.698,342.853 137.237 C 342.764 136.775,342.694 137.242,342.696 138.274 M95.138 157.019 C 94.995 158.351,95.017 159.687,95.188 159.987 C 95.374 160.315,95.528 159.351,95.575 157.565 C 95.669 153.969,95.488 153.743,95.138 157.019 M339.718 159.099 C 339.718 160.854,339.783 161.571,339.862 160.694 C 339.941 159.817,339.941 158.382,339.862 157.505 C 339.783 156.628,339.718 157.345,339.718 159.099 M105.253 164.500 C 106.079 164.760,107.134 165.176,107.598 165.426 C 108.063 165.676,108.443 165.781,108.443 165.661 C 108.443 165.302,105.315 163.993,104.503 164.011 C 104.090 164.020,104.428 164.240,105.253 164.500 M337.795 166.901 L 336.941 168.293 337.889 167.240 C 338.410 166.661,338.837 166.028,338.837 165.833 C 338.837 165.281,338.710 165.411,337.795 166.901 M110.131 167.355 C 110.937 168.180,111.681 168.856,111.785 168.856 C 111.888 168.856,111.313 168.180,110.507 167.355 C 109.700 166.529,108.957 165.854,108.853 165.854 C 108.750 165.854,109.325 166.529,110.131 167.355 M165.291 168.480 C 165.148 169.129,165.110 169.738,165.206 169.833 C 165.301 169.929,165.487 169.468,165.619 168.809 C 165.932 167.245,165.629 166.941,165.291 168.480 M330.206 171.689 C 329.062 172.016,328.820 172.177,329.456 172.186 C 329.972 172.193,330.901 171.967,331.520 171.683 C 332.905 171.049,332.433 171.051,330.206 171.689 M267.315 173.317 C 268.067 174.102,268.216 174.456,267.854 174.601 C 267.519 174.734,267.571 174.810,268.011 174.830 C 268.372 174.846,268.663 174.733,268.656 174.578 C 268.639 174.185,266.888 172.233,266.552 172.233 C 266.400 172.233,266.744 172.721,267.315 173.317 M278.868 172.514 C 282.930 172.574,289.685 172.574,293.877 172.514 C 298.070 172.453,294.747 172.404,286.492 172.404 C 278.236 172.404,274.806 172.453,278.868 172.514 M231.445 173.058 C 232.137 173.751,231.989 174.045,230.863 174.215 C 229.885 174.363,229.894 174.375,231.029 174.428 C 232.252 174.485,232.967 173.977,232.270 173.546 C 232.057 173.414,231.980 173.149,232.099 172.957 C 232.217 172.765,232.017 172.608,231.654 172.608 C 231.141 172.608,231.094 172.708,231.445 173.058 M259.200 173.630 C 259.874 173.714,260.888 173.712,261.451 173.626 C 262.015 173.541,261.463 173.473,260.225 173.475 C 258.987 173.477,258.526 173.547,259.200 173.630 M254.128 174.474 C 253.250 174.872,252.533 175.295,252.533 175.413 C 252.533 175.532,253.034 175.370,253.646 175.053 C 254.259 174.737,255.399 174.327,256.179 174.143 C 257.227 173.896,257.353 173.801,256.660 173.780 C 256.144 173.763,255.005 174.076,254.128 174.474 M264.353 174.130 C 266.253 174.524,267.789 174.506,266.229 174.109 C 265.610 173.951,264.597 173.822,263.977 173.821 C 263.031 173.820,263.091 173.869,264.353 174.130 M114.352 177.861 C 114.436 180.028,114.562 181.970,114.633 182.176 C 114.894 182.934,114.738 175.766,114.474 174.859 C 114.323 174.343,114.269 175.694,114.352 177.861 M236.773 175.422 C 237.473 176.144,238.130 176.735,238.234 176.735 C 238.337 176.735,237.848 176.144,237.148 175.422 C 236.448 174.700,235.791 174.109,235.688 174.109 C 235.584 174.109,236.073 174.700,236.773 175.422 M227.486 174.743 C 227.847 174.837,228.438 174.837,228.799 174.743 C 229.160 174.648,228.865 174.571,228.143 174.571 C 227.420 174.571,227.125 174.648,227.486 174.743 M203.084 176.744 C 202.644 177.448,202.665 177.469,203.369 177.029 C 203.786 176.768,204.128 176.427,204.128 176.270 C 204.128 175.728,203.556 175.988,203.084 176.744 M212.383 176.360 C 210.835 176.601,210.804 176.626,212.008 176.657 C 212.730 176.677,213.996 176.553,214.822 176.382 C 216.760 175.981,214.926 175.965,212.383 176.360 M208.724 176.994 C 209.085 177.089,209.676 177.089,210.038 176.994 C 210.399 176.900,210.103 176.823,209.381 176.823 C 208.659 176.823,208.363 176.900,208.724 176.994 M200.811 180.691 C 200.183 182.071,200.303 182.366,200.982 181.111 C 201.300 180.526,201.489 179.976,201.404 179.890 C 201.318 179.804,201.051 180.165,200.811 180.691 M156.460 181.817 C 156.069 182.288,156.071 182.480,156.469 182.849 C 156.857 183.208,156.896 183.193,156.658 182.776 C 156.465 182.438,156.605 182.069,157.050 181.744 C 157.431 181.466,157.561 181.238,157.341 181.238 C 157.120 181.238,156.724 181.499,156.460 181.817 M165.103 185.776 C 165.103 186.070,165.483 186.544,165.947 186.830 L 166.792 187.348 166.045 186.451 C 165.635 185.957,165.255 185.483,165.201 185.397 C 165.147 185.311,165.103 185.482,165.103 185.776 M180.841 186.865 C 180.702 187.965,180.494 188.215,179.550 188.416 C 178.466 188.645,178.461 188.656,179.410 188.699 C 180.665 188.755,181.332 187.954,181.150 186.608 C 181.015 185.614,180.997 185.629,180.841 186.865 M248.117 186.867 C 248.117 187.589,248.194 187.885,248.289 187.523 C 248.383 187.162,248.383 186.571,248.289 186.210 C 248.194 185.849,248.117 186.144,248.117 186.867 M155.702 190.525 L 154.409 191.932 155.816 190.639 C 157.126 189.436,157.396 189.118,157.109 189.118 C 157.047 189.118,156.413 189.751,155.702 190.525 M169.152 190.501 C 169.331 191.438,169.280 191.475,168.066 191.261 C 166.978 191.069,166.912 191.095,167.615 191.439 C 169.017 192.123,170.576 190.513,169.285 189.715 C 169.108 189.605,169.049 189.959,169.152 190.501 M248.500 191.932 C 248.504 192.758,248.581 193.052,248.671 192.585 C 248.760 192.118,248.757 191.443,248.663 191.084 C 248.569 190.725,248.496 191.107,248.500 191.932 M190.619 192.258 C 190.619 192.664,192.484 196.248,192.696 196.248 C 192.799 196.248,192.438 195.361,191.894 194.278 C 190.847 192.194,190.619 191.833,190.619 192.258 M248.897 196.060 C 248.899 197.298,248.969 197.760,249.052 197.085 C 249.136 196.411,249.134 195.398,249.049 194.834 C 248.963 194.270,248.895 194.822,248.897 196.060 M161.638 197.388 C 163.464 199.344,163.682 200.174,162.300 199.910 C 161.791 199.813,161.463 199.878,161.572 200.054 C 161.910 200.601,163.238 200.408,163.480 199.777 C 163.635 199.374,163.112 198.608,161.879 197.432 L 160.048 195.685 161.638 197.388 M237.361 198.780 C 236.550 199.817,236.485 199.991,237.114 199.441 C 237.866 198.784,238.859 197.373,238.569 197.373 C 238.510 197.373,237.966 198.007,237.361 198.780 M148.571 198.713 C 148.302 199.037,147.775 199.221,147.399 199.123 C 147.023 199.025,146.810 199.097,146.926 199.285 C 147.273 199.846,148.059 199.672,148.780 198.874 C 149.154 198.462,149.370 198.124,149.260 198.124 C 149.150 198.124,148.840 198.389,148.571 198.713 M249.276 200.750 C 249.276 202.092,249.344 202.641,249.427 201.970 C 249.510 201.299,249.510 200.202,249.427 199.531 C 249.344 198.860,249.276 199.409,249.276 200.750 M109.424 200.606 C 109.092 201.581,108.885 202.444,108.965 202.523 C 109.044 202.602,109.381 201.870,109.713 200.895 C 110.045 199.920,110.252 199.057,110.172 198.978 C 110.093 198.899,109.756 199.631,109.424 200.606 M144.625 201.400 C 145.216 202.113,145.245 202.336,144.819 202.901 C 144.342 203.534,144.352 203.535,145.037 202.907 C 145.742 202.261,145.738 202.233,144.843 201.406 L 143.930 200.563 144.625 201.400 M150.683 201.380 C 150.539 201.755,150.705 202.248,151.091 202.599 C 151.685 203.138,151.702 203.137,151.286 202.580 C 151.036 202.245,150.937 201.697,151.066 201.361 C 151.194 201.025,151.215 200.750,151.112 200.750 C 151.009 200.750,150.816 201.034,150.683 201.380 M133.615 202.391 C 134.001 202.737,136.210 203.752,136.210 203.584 C 136.210 203.368,134.130 202.251,133.727 202.251 C 133.579 202.251,133.529 202.314,133.615 202.391 M228.236 202.885 C 228.598 202.980,229.189 202.980,229.550 202.885 C 229.911 202.791,229.615 202.714,228.893 202.714 C 228.171 202.714,227.875 202.791,228.236 202.885 M207.950 203.283 C 211.393 203.344,217.134 203.345,220.708 203.283 C 224.281 203.221,221.463 203.170,214.447 203.170 C 207.430 203.170,204.506 203.221,207.950 203.283 M249.600 205.290 C 249.542 207.060,249.398 207.454,248.687 207.797 C 248.222 208.021,248.021 208.216,248.240 208.230 C 249.414 208.305,249.950 207.285,249.810 205.242 L 249.670 203.189 249.600 205.290 M147.256 205.347 L 146.154 206.567 147.369 205.468 L 148.585 204.370 150.277 205.585 C 151.208 206.254,151.970 206.721,151.970 206.622 C 151.970 206.395,148.898 204.128,148.589 204.128 C 148.462 204.128,147.862 204.676,147.256 205.347 M153.846 204.617 C 153.846 204.683,154.374 205.234,155.019 205.840 C 155.840 206.611,156.048 206.705,155.714 206.153 C 155.301 205.472,153.846 204.275,153.846 204.617 M180.458 207.036 C 178.245 209.515,177.743 210.131,177.938 210.131 C 178.052 210.131,178.939 209.203,179.908 208.068 C 181.704 205.966,182.134 205.157,180.458 207.036 M189.869 207.880 C 190.385 208.045,191.144 208.180,191.557 208.180 C 192.151 208.180,192.112 208.118,191.370 207.880 C 190.854 207.715,190.094 207.579,189.681 207.579 C 189.087 207.579,189.126 207.642,189.869 207.880 M244.934 208.520 C 245.399 208.609,246.159 208.609,246.623 208.520 C 247.087 208.431,246.707 208.357,245.779 208.357 C 244.850 208.357,244.470 208.431,244.934 208.520 M240.619 208.889 C 240.980 208.983,241.571 208.983,241.932 208.889 C 242.294 208.795,241.998 208.717,241.276 208.717 C 240.553 208.717,240.258 208.795,240.619 208.889 M201.220 209.640 C 201.581 209.734,202.172 209.734,202.533 209.640 C 202.894 209.545,202.598 209.468,201.876 209.468 C 201.154 209.468,200.858 209.545,201.220 209.640 M231.430 209.646 C 231.897 209.736,232.572 209.733,232.931 209.639 C 233.290 209.545,232.908 209.471,232.083 209.475 C 231.257 209.480,230.964 209.556,231.430 209.646 M205.166 210.028 C 205.841 210.112,206.854 210.110,207.418 210.024 C 207.981 209.939,207.430 209.870,206.191 209.872 C 204.953 209.874,204.492 209.945,205.166 210.028 M215.947 210.131 L 208.443 210.343 215.385 210.385 C 219.203 210.408,223.846 210.303,225.704 210.151 L 229.081 209.875 226.266 209.897 C 224.719 209.910,220.075 210.015,215.947 210.131 M104.860 212.042 C 104.530 212.681,104.326 213.270,104.408 213.351 C 104.489 213.432,104.837 212.910,105.180 212.190 C 105.952 210.572,105.684 210.448,104.860 212.042 M147.092 212.195 C 147.792 212.917,148.449 213.508,148.552 213.508 C 148.656 213.508,148.167 212.917,147.467 212.195 C 146.767 211.473,146.110 210.882,146.007 210.882 C 145.903 210.882,146.392 211.473,147.092 212.195 M132.083 212.519 C 132.083 212.622,132.589 213.068,133.208 213.508 C 133.827 213.949,134.334 214.226,134.334 214.122 C 134.334 214.019,133.827 213.574,133.208 213.133 C 132.589 212.692,132.083 212.416,132.083 212.519 M144.090 213.251 C 144.090 213.315,144.639 213.864,145.310 214.470 L 146.529 215.572 145.427 214.353 C 144.400 213.216,144.090 212.961,144.090 213.251 M129.081 213.619 C 129.081 213.715,129.875 214.444,130.846 215.239 C 131.816 216.035,132.489 216.490,132.341 216.250 C 132.026 215.740,129.081 213.363,129.081 213.619 M102.728 216.229 C 101.907 217.494,101.171 219.002,101.583 218.574 C 102.109 218.027,103.657 215.385,103.451 215.385 C 103.355 215.385,103.029 215.765,102.728 216.229 M100.188 220.263 C 99.747 220.882,99.470 221.388,99.574 221.388 C 99.677 221.388,100.122 220.882,100.563 220.263 C 101.004 219.644,101.280 219.137,101.177 219.137 C 101.074 219.137,100.628 219.644,100.188 220.263 M135.650 219.883 C 135.517 220.098,135.672 220.158,136.017 220.025 C 136.346 219.899,136.985 220.111,137.444 220.499 L 138.274 221.201 137.559 220.356 C 136.801 219.461,136.029 219.270,135.650 219.883 M142.964 221.201 C 143.664 221.923,144.322 222.514,144.425 222.514 C 144.528 222.514,144.040 221.923,143.340 221.201 C 142.639 220.478,141.982 219.887,141.879 219.887 C 141.776 219.887,142.264 220.478,142.964 221.201 M138.462 221.131 C 138.462 221.195,139.010 221.744,139.681 222.350 L 140.901 223.452 139.798 222.233 C 138.771 221.096,138.462 220.841,138.462 221.131 M123.452 221.495 C 123.452 221.582,124.508 222.451,125.797 223.427 C 127.087 224.403,127.552 224.669,126.829 224.018 C 125.322 222.659,123.452 221.263,123.452 221.495 M172.091 222.233 C 171.965 222.697,171.786 224.512,171.692 226.266 L 171.522 229.456 171.842 226.703 C 172.017 225.188,172.270 223.373,172.402 222.669 C 172.670 221.238,172.446 220.923,172.091 222.233 M132.458 224.725 C 132.458 224.906,132.880 225.331,133.396 225.669 C 133.912 226.007,134.334 226.226,134.334 226.155 C 134.334 226.084,133.912 225.659,133.396 225.211 C 132.880 224.762,132.458 224.544,132.458 224.725 M147.466 225.797 C 147.957 226.468,148.417 227.017,148.489 227.017 C 148.774 227.017,147.844 225.610,147.228 225.110 C 146.823 224.781,146.914 225.043,147.466 225.797 M114.071 226.755 C 114.071 226.841,115.042 227.534,116.229 228.296 C 117.416 229.057,117.925 229.288,117.360 228.808 C 116.246 227.861,114.071 226.503,114.071 226.755 M135.084 226.759 C 135.084 226.824,135.633 227.372,136.304 227.979 L 137.523 229.081 136.421 227.861 C 135.394 226.724,135.084 226.469,135.084 226.759 M146.962 227.861 C 147.058 228.016,147.464 228.143,147.865 228.143 C 148.265 228.143,148.593 228.016,148.593 227.861 C 148.593 227.706,148.187 227.580,147.691 227.580 C 147.194 227.580,146.867 227.706,146.962 227.861 M120.075 230.869 C 120.075 230.944,120.666 231.530,121.388 232.169 C 122.111 232.809,122.702 233.197,122.702 233.033 C 122.702 232.869,122.111 232.284,121.388 231.733 C 120.666 231.182,120.075 230.793,120.075 230.869 M101.047 233.865 C 100.622 234.329,100.172 235.131,100.047 235.647 C 99.878 236.346,99.960 236.282,100.368 235.395 C 100.670 234.740,101.297 233.938,101.761 233.612 C 102.226 233.287,102.429 233.021,102.213 233.021 C 101.996 233.021,101.472 233.401,101.047 233.865 M138.462 233.138 C 138.462 233.203,139.010 233.751,139.681 234.358 L 140.901 235.460 139.798 234.240 C 138.771 233.103,138.462 232.848,138.462 233.138 M108.068 234.315 C 108.068 234.418,108.574 234.764,109.193 235.084 C 109.812 235.405,110.319 235.582,110.319 235.479 C 110.319 235.376,109.812 235.029,109.193 234.709 C 108.574 234.389,108.068 234.211,108.068 234.315 M119.887 237.148 C 119.567 237.767,119.390 238.274,119.493 238.274 C 119.596 238.274,119.942 237.767,120.263 237.148 C 120.583 236.529,120.760 236.023,120.657 236.023 C 120.554 236.023,120.208 236.529,119.887 237.148 M164.849 237.617 C 164.431 238.082,163.955 238.715,163.791 239.024 C 163.474 239.622,163.560 239.540,165.080 237.805 C 165.578 237.237,165.900 236.773,165.797 236.773 C 165.694 236.773,165.267 237.153,164.849 237.617 M134.146 239.024 C 134.952 239.850,135.696 240.525,135.800 240.525 C 135.903 240.525,135.328 239.850,134.522 239.024 C 133.715 238.199,132.972 237.523,132.868 237.523 C 132.765 237.523,133.340 238.199,134.146 239.024 M115.197 238.818 C 115.197 238.921,115.704 239.267,116.323 239.587 C 116.942 239.907,117.448 240.085,117.448 239.982 C 117.448 239.879,116.942 239.532,116.323 239.212 C 115.704 238.892,115.197 238.714,115.197 238.818 M132.083 240.643 C 132.083 240.707,132.631 241.256,133.302 241.862 L 134.522 242.964 133.419 241.745 C 132.392 240.608,132.083 240.353,132.083 240.643 M85.433 242.607 C 84.552 244.455,84.676 244.770,85.597 243.023 C 86.016 242.229,86.292 241.514,86.211 241.433 C 86.130 241.352,85.780 241.880,85.433 242.607 M162.335 242.228 C 162.207 242.564,162.119 243.204,162.140 243.652 C 162.164 244.166,162.291 243.983,162.486 243.155 C 162.814 241.760,162.725 241.213,162.335 242.228 M161.839 246.529 C 161.839 247.664,161.909 248.129,161.995 247.561 C 162.081 246.993,162.081 246.065,161.995 245.497 C 161.909 244.930,161.839 245.394,161.839 246.529 M83.182 247.485 C 82.300 249.333,82.424 249.648,83.346 247.901 C 83.764 247.107,84.040 246.392,83.959 246.311 C 83.878 246.230,83.528 246.758,83.182 247.485 M97.656 249.719 C 97.660 250.544,97.737 250.838,97.826 250.371 C 97.916 249.904,97.913 249.229,97.819 248.870 C 97.725 248.511,97.651 248.893,97.656 249.719 M104.348 250.375 C 104.435 250.427,105.097 250.976,105.818 251.595 L 107.129 252.720 106.027 251.501 C 105.421 250.830,104.760 250.281,104.558 250.281 C 104.356 250.281,104.261 250.324,104.348 250.375 M162.477 251.699 C 162.477 252.272,162.210 253.159,161.884 253.669 L 161.291 254.597 162.071 253.711 C 162.748 252.942,163.192 250.657,162.664 250.657 C 162.561 250.657,162.477 251.126,162.477 251.699 M97.321 255.910 C 97.321 257.871,97.384 258.673,97.462 257.692 C 97.539 256.712,97.539 255.108,97.462 254.128 C 97.384 253.147,97.321 253.949,97.321 255.910 M108.068 256.577 C 108.068 257.150,107.801 258.037,107.475 258.547 L 106.882 259.475 107.662 258.589 C 108.339 257.820,108.783 255.535,108.255 255.535 C 108.152 255.535,108.068 256.004,108.068 256.577 M77.734 259.491 C 77.106 260.871,77.226 261.165,77.906 259.911 C 78.223 259.325,78.413 258.775,78.327 258.689 C 78.241 258.604,77.974 258.964,77.734 259.491 M97.280 260.976 C 97.285 261.801,97.361 262.095,97.451 261.628 C 97.541 261.161,97.537 260.486,97.444 260.127 C 97.350 259.768,97.276 260.150,97.280 260.976 M152.533 265.291 C 152.390 265.939,152.352 266.548,152.448 266.644 C 152.543 266.740,152.729 266.278,152.861 265.619 C 153.174 264.055,152.871 263.752,152.533 265.291 M127.369 265.760 L 126.266 266.979 127.486 265.877 C 128.623 264.850,128.878 264.540,128.588 264.540 C 128.523 264.540,127.975 265.089,127.369 265.760 M73.780 269.245 C 73.651 269.581,73.560 270.137,73.578 270.481 C 73.596 270.825,73.759 270.609,73.941 270.000 C 74.295 268.816,74.170 268.230,73.780 269.245 M118.293 272.082 C 117.416 272.704,116.698 273.295,116.698 273.397 C 116.698 273.499,117.458 273.059,118.386 272.420 C 119.315 271.781,120.075 271.182,120.075 271.089 C 120.075 270.831,120.004 270.870,118.293 272.082 M73.258 272.420 C 73.258 273.143,73.335 273.438,73.429 273.077 C 73.524 272.716,73.524 272.125,73.429 271.764 C 73.335 271.402,73.258 271.698,73.258 272.420 M151.682 272.420 C 151.682 273.143,151.759 273.438,151.853 273.077 C 151.948 272.716,151.948 272.125,151.853 271.764 C 151.759 271.402,151.682 271.698,151.682 272.420 M97.293 273.734 C 97.296 274.765,97.369 275.143,97.455 274.573 C 97.541 274.002,97.539 273.158,97.450 272.697 C 97.361 272.235,97.290 272.702,97.293 273.734 M73.576 278.724 C 73.543 279.267,74.584 281.426,74.879 281.426 C 74.982 281.426,74.832 280.962,74.545 280.394 C 74.259 279.826,73.930 279.109,73.815 278.799 C 73.674 278.421,73.595 278.396,73.576 278.724 M150.155 280.879 C 149.526 282.259,149.646 282.553,150.326 281.299 C 150.643 280.713,150.833 280.164,150.747 280.078 C 150.661 279.992,150.395 280.353,150.155 280.879 M75.047 281.919 C 75.047 281.983,75.596 282.532,76.266 283.138 L 77.486 284.240 76.384 283.021 C 75.357 281.884,75.047 281.629,75.047 281.919 M78.372 284.781 C 78.859 285.206,79.436 285.553,79.654 285.553 C 80.115 285.553,80.093 285.535,78.612 284.667 L 77.486 284.008 78.372 284.781 M144.653 286.700 C 143.827 287.090,143.371 287.414,143.640 287.420 C 144.186 287.431,146.341 286.383,146.341 286.107 C 146.341 285.887,146.452 285.848,144.653 286.700 M87.523 286.958 C 90.911 287.107,90.876 287.052,88.931 289.162 C 88.105 290.057,87.430 291.005,87.431 291.267 C 87.432 291.530,87.746 291.231,88.129 290.603 C 88.512 289.975,89.385 288.990,90.069 288.414 C 91.711 287.033,91.130 286.669,87.430 286.760 L 84.615 286.830 87.523 286.958 M140.338 287.574 C 140.338 287.654,140.802 288.021,141.370 288.390 C 142.198 288.929,142.304 288.943,141.911 288.462 C 141.489 287.948,141.542 287.839,142.286 287.697 C 142.848 287.590,142.659 287.514,141.745 287.481 C 140.971 287.453,140.338 287.495,140.338 287.574 M143.713 291.839 C 143.711 293.970,141.629 296.223,139.109 296.821 C 138.013 297.082,137.991 297.113,138.875 297.147 C 140.941 297.229,144.090 294.047,144.090 291.877 C 144.090 291.288,144.006 290.807,143.902 290.807 C 143.799 290.807,143.714 291.271,143.713 291.839 M88.263 296.635 C 88.824 297.226,89.350 297.633,89.433 297.541 C 89.515 297.449,89.056 296.966,88.412 296.468 L 87.242 295.562 88.263 296.635 M126.380 297.466 C 128.507 297.533,131.884 297.533,133.885 297.465 C 135.886 297.398,134.146 297.343,130.019 297.343 C 125.891 297.344,124.254 297.399,126.380 297.466 " stroke="none" fill="#6e5637" fill-rule="evenodd"></path></g></svg>